<svg width="139" height="30" viewBox="0 0 139 30" fill="none" xmlns="http://www.w3.org/2000/svg">
<path d="M11.6719 16.5195H4.36719L4.32812 12.4961H10.4609C11.5417 12.4961 12.4271 12.3594 13.1172 12.0859C13.8073 11.7995 14.3216 11.3893 14.6602 10.8555C15.0117 10.3086 15.1875 9.64453 15.1875 8.86328C15.1875 7.97786 15.0182 7.26172 14.6797 6.71484C14.3542 6.16797 13.8398 5.77083 13.1367 5.52344C12.4466 5.27604 11.5547 5.15234 10.4609 5.15234H6.39844V29H0.539062V0.5625H10.4609C12.1146 0.5625 13.5924 0.71875 14.8945 1.03125C16.2096 1.34375 17.3229 1.81901 18.2344 2.45703C19.1458 3.09505 19.8424 3.90234 20.3242 4.87891C20.806 5.84245 21.0469 6.98828 21.0469 8.31641C21.0469 9.48828 20.7799 10.569 20.2461 11.5586C19.7253 12.5482 18.8984 13.3555 17.7656 13.9805C16.6458 14.6055 15.181 14.9505 13.3711 15.0156L11.6719 16.5195ZM11.418 29H2.76562L5.05078 24.4297H11.418C12.4466 24.4297 13.2865 24.2669 13.9375 23.9414C14.5885 23.6029 15.0703 23.1471 15.3828 22.5742C15.6953 22.0013 15.8516 21.3438 15.8516 20.6016C15.8516 19.7682 15.7083 19.0456 15.4219 18.4336C15.1484 17.8216 14.7057 17.3529 14.0938 17.0273C13.4818 16.6888 12.6745 16.5195 11.6719 16.5195H6.02734L6.06641 12.4961H13.0977L14.4453 14.0781C16.1771 14.0521 17.5703 14.3581 18.625 14.9961C19.6927 15.6211 20.4674 16.4349 20.9492 17.4375C21.444 18.4401 21.6914 19.5143 21.6914 20.6602C21.6914 22.4831 21.2943 24.0195 20.5 25.2695C19.7057 26.5065 18.5404 27.4375 17.0039 28.0625C15.4805 28.6875 13.6185 29 11.418 29ZM47.0508 12.1445V16.7148H32.207V12.1445H47.0508ZM33.9453 0.5625V29H28.0859V0.5625H33.9453ZM51.2305 0.5625V29H45.3906V0.5625H51.2305ZM110.348 0.5625V29H104.488L93.0625 9.9375V29H87.2031V0.5625H93.0625L104.508 19.6445V0.5625H110.348ZM133.148 0.5625H138.988V19.3516C138.988 21.5391 138.52 23.3815 137.582 24.8789C136.658 26.3763 135.375 27.5026 133.734 28.2578C132.107 29.013 130.232 29.3906 128.109 29.3906C125.987 29.3906 124.099 29.013 122.445 28.2578C120.805 27.5026 119.516 26.3763 118.578 24.8789C117.654 23.3815 117.191 21.5391 117.191 19.3516V0.5625H123.051V19.3516C123.051 20.6276 123.253 21.6693 123.656 22.4766C124.06 23.2839 124.639 23.8763 125.395 24.2539C126.163 24.6315 127.068 24.8203 128.109 24.8203C129.177 24.8203 130.082 24.6315 130.824 24.2539C131.579 23.8763 132.152 23.2839 132.543 22.4766C132.947 21.6693 133.148 20.6276 133.148 19.3516V0.5625Z" fill="white"/>
<path d="M69.8906 5.42578L62.1562 29H55.9258L66.4922 0.5625H70.457L69.8906 5.42578ZM76.3164 29L68.5625 5.42578L67.9375 0.5625H71.9414L82.5664 29H76.3164ZM75.9648 18.4141V23.0039H60.9453V18.4141H75.9648Z" fill="#E200FF"/>
</svg>
