<svg width="447" height="980" viewBox="0 0 447 980" fill="none" xmlns="http://www.w3.org/2000/svg">
<path d="M372.129 104C411.822 104 444 136.178 444 175.871L444 902.663C444 931.016 421.016 954 392.663 954H98.8714C59.1779 954 27 921.822 27 882.129L27 155.337C27 126.984 49.9842 104 78.3367 104L372.129 104Z" fill="url(#paint0_linear_186_85)"/>
<g clip-path="url(#clip0_186_85)">
<rect x="447" y="120" width="833" height="406" rx="51.3367" transform="rotate(90 447 120)" fill="url(#paint1_linear_186_85)"/>
<g filter="url(#filter0_f_186_85)">
<circle cx="142.176" cy="525.385" r="121.176" transform="rotate(90 142.176 525.385)" fill="#FE53BB" fill-opacity="0.4"/>
</g>
<g filter="url(#filter1_f_186_85)">
<circle cx="163.824" cy="455.176" r="121.176" transform="rotate(90 163.824 455.176)" fill="#09FBD3" fill-opacity="0.4"/>
</g>
<path opacity="0.4" d="M244.5 137.5L222 120H85L109 137.5H244.5Z" fill="#9A97A5"/>
<path opacity="0.4" d="M411 137L390.122 120H263L285.27 137H411Z" fill="#9A97A5"/>
<path fill-rule="evenodd" clip-rule="evenodd" d="M343 147C359.015 147 372 160.433 372 177C372 193.567 359.015 207 343 207C326.985 207 314 193.567 314 177C314 160.433 326.985 147 343 147ZM342.873 177.078C343.703 177.078 344.374 177.771 344.374 178.631C344.374 179.49 343.703 180.184 342.873 180.184C342.042 180.184 341.372 179.49 341.372 178.631C341.372 177.776 342.047 177.078 342.873 177.078ZM342.887 173.016C345.879 173.016 348.301 175.525 348.301 178.616C348.301 181.712 345.875 184.217 342.887 184.217C339.899 184.217 337.473 181.707 337.473 178.616C337.473 175.521 339.899 173.016 342.887 173.016ZM320.976 168.763C323.077 162.752 327.358 157.679 332.729 155.086C340.107 151.526 349.065 151.302 356.655 157.112C361.13 160.535 362.763 163.343 364.995 168.318C366.685 172.728 365.298 174.163 359.865 171.688C348.636 165.94 337.284 166.199 325.824 171.688C321.595 174.544 319.22 172.161 320.976 168.763ZM349.825 200.247C357.67 197.693 362.248 192.527 365.057 185.94C366.883 180.848 361.158 179.119 359.147 182.474C357.944 184.944 356.509 187.063 354.64 188.709C351.713 191.282 347.475 191.751 346.814 196.6C346.469 199.119 347.026 201.385 349.825 200.247ZM336.307 200.247C328.462 197.693 323.884 192.527 321.075 185.94C319.249 180.848 324.974 179.119 326.985 182.474C328.188 184.944 329.623 187.063 331.493 188.709C334.419 191.282 338.658 191.751 339.318 196.6C339.663 199.119 339.106 201.385 336.307 200.247Z" fill="#5C49A3"/>
<path d="M108.232 246.749L105.525 255H103.345L107.043 245.047H108.431L108.232 246.749ZM110.481 255L107.768 246.749L107.549 245.047H108.95L112.669 255H110.481ZM110.358 251.295V252.901H105.102V251.295H110.358Z" fill="#59597C"/>
<path d="M97.2627 221.396C97.2627 221.218 97.2354 221.058 97.1807 220.917C97.1305 220.771 97.0348 220.639 96.8936 220.521C96.7523 220.397 96.554 220.277 96.2988 220.158C96.0436 220.04 95.7132 219.917 95.3076 219.789C94.8564 219.643 94.4281 219.479 94.0225 219.297C93.6214 219.115 93.266 218.903 92.9561 218.661C92.6507 218.415 92.4092 218.13 92.2314 217.807C92.0583 217.483 91.9717 217.107 91.9717 216.679C91.9717 216.264 92.0628 215.888 92.2451 215.551C92.4274 215.209 92.6826 214.917 93.0107 214.676C93.3389 214.43 93.7262 214.241 94.1729 214.108C94.624 213.976 95.1185 213.91 95.6562 213.91C96.39 213.91 97.0303 214.042 97.5771 214.307C98.124 214.571 98.5479 214.933 98.8486 215.394C99.154 215.854 99.3066 216.38 99.3066 216.973H97.2695C97.2695 216.681 97.208 216.426 97.085 216.207C96.9665 215.984 96.7842 215.808 96.5381 215.681C96.2965 215.553 95.9912 215.489 95.6221 215.489C95.2666 215.489 94.9704 215.544 94.7334 215.653C94.4964 215.758 94.3187 215.902 94.2002 216.084C94.0817 216.262 94.0225 216.462 94.0225 216.686C94.0225 216.854 94.0635 217.007 94.1455 217.144C94.2321 217.28 94.3597 217.408 94.5283 217.526C94.6969 217.645 94.9043 217.757 95.1504 217.861C95.3965 217.966 95.6813 218.069 96.0049 218.169C96.5472 218.333 97.0234 218.518 97.4336 218.723C97.8483 218.928 98.1947 219.158 98.4727 219.413C98.7507 219.668 98.9603 219.958 99.1016 220.281C99.2428 220.605 99.3135 220.972 99.3135 221.382C99.3135 221.815 99.2292 222.202 99.0605 222.544C98.8919 222.886 98.6481 223.175 98.3291 223.412C98.0101 223.649 97.6296 223.829 97.1875 223.952C96.7454 224.075 96.251 224.137 95.7041 224.137C95.2119 224.137 94.7266 224.073 94.248 223.945C93.7695 223.813 93.3343 223.615 92.9424 223.351C92.555 223.086 92.2451 222.749 92.0127 222.339C91.7803 221.929 91.6641 221.443 91.6641 220.883H93.7217C93.7217 221.193 93.7695 221.455 93.8652 221.669C93.9609 221.883 94.0954 222.056 94.2686 222.188C94.4463 222.321 94.6559 222.416 94.8975 222.476C95.1436 222.535 95.4124 222.564 95.7041 222.564C96.0596 222.564 96.3512 222.514 96.5791 222.414C96.8115 222.314 96.9824 222.175 97.0918 221.997C97.2057 221.819 97.2627 221.619 97.2627 221.396ZM103.989 224.137C103.415 224.137 102.9 224.046 102.444 223.863C101.989 223.676 101.601 223.419 101.282 223.091C100.968 222.763 100.726 222.382 100.558 221.949C100.389 221.512 100.305 221.047 100.305 220.555V220.281C100.305 219.721 100.384 219.208 100.544 218.743C100.703 218.278 100.931 217.875 101.228 217.533C101.528 217.191 101.893 216.929 102.321 216.747C102.75 216.56 103.233 216.467 103.771 216.467C104.295 216.467 104.759 216.553 105.165 216.727C105.571 216.9 105.91 217.146 106.184 217.465C106.462 217.784 106.671 218.167 106.812 218.613C106.954 219.055 107.024 219.548 107.024 220.09V220.91H101.146V219.598H105.09V219.447C105.09 219.174 105.04 218.93 104.939 218.716C104.844 218.497 104.698 218.324 104.502 218.196C104.306 218.069 104.055 218.005 103.75 218.005C103.49 218.005 103.267 218.062 103.08 218.176C102.893 218.29 102.741 218.449 102.622 218.654C102.508 218.859 102.422 219.101 102.362 219.379C102.308 219.652 102.28 219.953 102.28 220.281V220.555C102.28 220.851 102.321 221.124 102.403 221.375C102.49 221.626 102.611 221.842 102.766 222.024C102.925 222.207 103.117 222.348 103.34 222.448C103.568 222.549 103.825 222.599 104.112 222.599C104.468 222.599 104.798 222.53 105.104 222.394C105.413 222.252 105.68 222.04 105.903 221.758L106.86 222.797C106.705 223.02 106.493 223.234 106.225 223.439C105.96 223.645 105.641 223.813 105.268 223.945C104.894 224.073 104.468 224.137 103.989 224.137ZM112.138 222.332V219.037C112.138 218.8 112.099 218.597 112.021 218.429C111.944 218.256 111.823 218.121 111.659 218.025C111.5 217.93 111.292 217.882 111.037 217.882C110.818 217.882 110.629 217.921 110.47 217.998C110.31 218.071 110.187 218.178 110.101 218.319C110.014 218.456 109.971 218.618 109.971 218.805H108.002C108.002 218.49 108.075 218.192 108.221 217.909C108.367 217.627 108.578 217.378 108.856 217.164C109.134 216.945 109.465 216.774 109.848 216.651C110.235 216.528 110.668 216.467 111.146 216.467C111.721 216.467 112.231 216.562 112.678 216.754C113.124 216.945 113.475 217.232 113.73 217.615C113.99 217.998 114.12 218.477 114.12 219.051V222.216C114.12 222.621 114.145 222.954 114.195 223.214C114.245 223.469 114.318 223.692 114.414 223.884V224H112.425C112.329 223.799 112.256 223.549 112.206 223.248C112.16 222.943 112.138 222.637 112.138 222.332ZM112.397 219.495L112.411 220.609H111.311C111.051 220.609 110.825 220.639 110.634 220.698C110.442 220.757 110.285 220.842 110.162 220.951C110.039 221.056 109.948 221.179 109.889 221.32C109.834 221.462 109.807 221.617 109.807 221.785C109.807 221.954 109.845 222.106 109.923 222.243C110 222.375 110.112 222.48 110.258 222.558C110.404 222.631 110.575 222.667 110.771 222.667C111.067 222.667 111.324 222.608 111.543 222.489C111.762 222.371 111.93 222.225 112.049 222.052C112.172 221.879 112.236 221.715 112.24 221.56L112.76 222.394C112.687 222.58 112.587 222.774 112.459 222.975C112.336 223.175 112.179 223.364 111.987 223.542C111.796 223.715 111.566 223.859 111.297 223.973C111.028 224.082 110.709 224.137 110.34 224.137C109.87 224.137 109.444 224.043 109.062 223.856C108.683 223.665 108.382 223.403 108.159 223.07C107.94 222.733 107.831 222.35 107.831 221.922C107.831 221.535 107.904 221.19 108.05 220.89C108.196 220.589 108.41 220.336 108.692 220.131C108.979 219.921 109.337 219.764 109.766 219.659C110.194 219.55 110.691 219.495 111.256 219.495H112.397ZM119.261 216.604V217.998H114.954V216.604H119.261ZM116.021 214.778H117.989V221.771C117.989 221.986 118.017 222.15 118.071 222.264C118.131 222.378 118.217 222.457 118.331 222.503C118.445 222.544 118.589 222.564 118.762 222.564C118.885 222.564 118.994 222.56 119.09 222.551C119.19 222.537 119.274 222.523 119.343 222.51L119.35 223.959C119.181 224.014 118.999 224.057 118.803 224.089C118.607 224.121 118.39 224.137 118.153 224.137C117.72 224.137 117.342 224.066 117.019 223.925C116.7 223.779 116.453 223.547 116.28 223.228C116.107 222.909 116.021 222.489 116.021 221.97V214.778ZM124.381 221.956C124.381 221.815 124.34 221.687 124.258 221.573C124.176 221.459 124.023 221.354 123.8 221.259C123.581 221.159 123.264 221.067 122.85 220.985C122.476 220.903 122.127 220.801 121.804 220.678C121.485 220.55 121.207 220.397 120.97 220.22C120.737 220.042 120.555 219.832 120.423 219.591C120.291 219.345 120.225 219.064 120.225 218.75C120.225 218.44 120.291 218.148 120.423 217.875C120.56 217.602 120.753 217.36 121.004 217.15C121.259 216.936 121.569 216.77 121.934 216.651C122.303 216.528 122.717 216.467 123.178 216.467C123.82 216.467 124.372 216.569 124.832 216.774C125.297 216.979 125.652 217.262 125.898 217.622C126.149 217.978 126.274 218.383 126.274 218.839H124.306C124.306 218.647 124.265 218.477 124.183 218.326C124.105 218.171 123.982 218.05 123.813 217.964C123.649 217.873 123.435 217.827 123.171 217.827C122.952 217.827 122.763 217.866 122.604 217.943C122.444 218.016 122.321 218.117 122.234 218.244C122.152 218.367 122.111 218.504 122.111 218.654C122.111 218.768 122.134 218.871 122.18 218.962C122.23 219.049 122.31 219.128 122.419 219.201C122.528 219.274 122.67 219.342 122.843 219.406C123.021 219.465 123.239 219.52 123.499 219.57C124.032 219.68 124.508 219.823 124.928 220.001C125.347 220.174 125.68 220.411 125.926 220.712C126.172 221.008 126.295 221.398 126.295 221.881C126.295 222.209 126.222 222.51 126.076 222.783C125.93 223.057 125.721 223.296 125.447 223.501C125.174 223.701 124.846 223.859 124.463 223.973C124.085 224.082 123.659 224.137 123.185 224.137C122.496 224.137 121.913 224.014 121.435 223.768C120.961 223.521 120.601 223.209 120.354 222.831C120.113 222.448 119.992 222.056 119.992 221.655H121.858C121.868 221.924 121.936 222.141 122.063 222.305C122.196 222.469 122.362 222.587 122.562 222.66C122.768 222.733 122.989 222.77 123.226 222.77C123.481 222.77 123.693 222.735 123.861 222.667C124.03 222.594 124.158 222.498 124.244 222.38C124.335 222.257 124.381 222.116 124.381 221.956Z" fill="#59597C"/>
<path d="M319.814 250.632H317.258L317.244 249.224H319.391C319.769 249.224 320.079 249.176 320.32 249.08C320.562 248.98 320.742 248.836 320.86 248.649C320.983 248.458 321.045 248.226 321.045 247.952C321.045 247.642 320.986 247.392 320.867 247.2C320.753 247.009 320.573 246.87 320.327 246.783C320.086 246.697 319.773 246.653 319.391 246.653H317.969V255H315.918V245.047H319.391C319.969 245.047 320.487 245.102 320.942 245.211C321.403 245.32 321.792 245.487 322.111 245.71C322.43 245.933 322.674 246.216 322.843 246.558C323.011 246.895 323.096 247.296 323.096 247.761C323.096 248.171 323.002 248.549 322.815 248.896C322.633 249.242 322.344 249.524 321.947 249.743C321.555 249.962 321.043 250.083 320.409 250.105L319.814 250.632ZM319.726 255H316.697L317.497 253.4H319.726C320.086 253.4 320.38 253.343 320.607 253.229C320.835 253.111 321.004 252.951 321.113 252.751C321.223 252.55 321.277 252.32 321.277 252.061C321.277 251.769 321.227 251.516 321.127 251.302C321.031 251.088 320.876 250.924 320.662 250.81C320.448 250.691 320.165 250.632 319.814 250.632H317.839L317.853 249.224H320.313L320.785 249.777C321.391 249.768 321.879 249.875 322.248 250.099C322.622 250.317 322.893 250.602 323.062 250.953C323.235 251.304 323.321 251.68 323.321 252.081C323.321 252.719 323.182 253.257 322.904 253.694C322.626 254.127 322.218 254.453 321.681 254.672C321.147 254.891 320.496 255 319.726 255Z" fill="#59597C"/>
<path d="M381.078 251.698H383.122C383.081 252.368 382.896 252.963 382.568 253.482C382.245 254.002 381.791 254.408 381.208 254.699C380.629 254.991 379.932 255.137 379.116 255.137C378.478 255.137 377.906 255.027 377.4 254.809C376.895 254.585 376.462 254.266 376.102 253.852C375.746 253.437 375.475 252.936 375.288 252.348C375.101 251.76 375.008 251.101 375.008 250.372V249.682C375.008 248.952 375.104 248.294 375.295 247.706C375.491 247.114 375.769 246.61 376.129 246.195C376.493 245.781 376.929 245.462 377.435 245.238C377.94 245.015 378.506 244.903 379.13 244.903C379.959 244.903 380.659 245.054 381.229 245.354C381.803 245.655 382.247 246.07 382.562 246.599C382.881 247.127 383.072 247.729 383.136 248.403H381.085C381.062 248.002 380.982 247.663 380.846 247.385C380.709 247.102 380.502 246.89 380.224 246.749C379.95 246.603 379.586 246.53 379.13 246.53C378.788 246.53 378.49 246.594 378.234 246.722C377.979 246.849 377.765 247.043 377.592 247.303C377.419 247.562 377.289 247.891 377.202 248.287C377.12 248.679 377.079 249.139 377.079 249.668V250.372C377.079 250.887 377.118 251.34 377.195 251.732C377.273 252.12 377.391 252.448 377.551 252.717C377.715 252.981 377.924 253.182 378.18 253.318C378.439 253.451 378.752 253.517 379.116 253.517C379.545 253.517 379.898 253.448 380.176 253.312C380.454 253.175 380.666 252.972 380.812 252.703C380.962 252.434 381.051 252.099 381.078 251.698Z" fill="#59597C"/>
<path d="M425.963 305.026V315H423.994V307.296L421.629 308.048V306.496L425.751 305.026H425.963Z" fill="#59597C"/>
<path d="M427.973 387.462V389H421.164V387.688L424.384 384.235C424.707 383.875 424.963 383.559 425.149 383.285C425.336 383.007 425.471 382.759 425.553 382.54C425.639 382.317 425.683 382.105 425.683 381.904C425.683 381.604 425.632 381.346 425.532 381.132C425.432 380.913 425.284 380.744 425.088 380.626C424.896 380.507 424.66 380.448 424.377 380.448C424.076 380.448 423.816 380.521 423.598 380.667C423.383 380.813 423.219 381.016 423.105 381.275C422.996 381.535 422.941 381.829 422.941 382.157H420.966C420.966 381.565 421.107 381.022 421.39 380.53C421.672 380.034 422.071 379.639 422.586 379.348C423.101 379.051 423.712 378.903 424.418 378.903C425.115 378.903 425.703 379.017 426.182 379.245C426.665 379.468 427.029 379.792 427.275 380.216C427.526 380.635 427.651 381.136 427.651 381.72C427.651 382.048 427.599 382.369 427.494 382.684C427.389 382.993 427.239 383.303 427.043 383.613C426.852 383.919 426.619 384.229 426.346 384.543C426.072 384.857 425.769 385.183 425.437 385.521L423.707 387.462H427.973Z" fill="#59597C"/>
<path d="M423.181 448.169H424.233C424.571 448.169 424.849 448.112 425.067 447.998C425.286 447.88 425.448 447.715 425.553 447.506C425.662 447.292 425.717 447.043 425.717 446.761C425.717 446.506 425.667 446.28 425.566 446.084C425.471 445.883 425.323 445.729 425.122 445.619C424.922 445.505 424.669 445.448 424.363 445.448C424.122 445.448 423.898 445.496 423.693 445.592C423.488 445.688 423.324 445.822 423.201 445.995C423.078 446.168 423.017 446.378 423.017 446.624H421.041C421.041 446.077 421.187 445.601 421.479 445.195C421.775 444.79 422.171 444.473 422.668 444.245C423.165 444.017 423.712 443.903 424.309 443.903C424.983 443.903 425.573 444.013 426.079 444.231C426.585 444.446 426.979 444.762 427.262 445.182C427.544 445.601 427.686 446.12 427.686 446.74C427.686 447.055 427.613 447.36 427.467 447.656C427.321 447.948 427.111 448.212 426.838 448.449C426.569 448.682 426.241 448.868 425.854 449.01C425.466 449.146 425.031 449.215 424.548 449.215H423.181V448.169ZM423.181 449.666V448.647H424.548C425.09 448.647 425.566 448.709 425.977 448.832C426.387 448.955 426.731 449.133 427.009 449.365C427.287 449.593 427.496 449.864 427.638 450.179C427.779 450.489 427.85 450.833 427.85 451.211C427.85 451.676 427.761 452.09 427.583 452.455C427.405 452.815 427.155 453.12 426.831 453.371C426.512 453.622 426.138 453.813 425.71 453.945C425.282 454.073 424.814 454.137 424.309 454.137C423.889 454.137 423.477 454.08 423.071 453.966C422.67 453.847 422.306 453.672 421.978 453.439C421.654 453.202 421.394 452.906 421.198 452.551C421.007 452.191 420.911 451.765 420.911 451.272H422.887C422.887 451.528 422.951 451.756 423.078 451.956C423.206 452.157 423.381 452.314 423.604 452.428C423.832 452.542 424.085 452.599 424.363 452.599C424.678 452.599 424.947 452.542 425.17 452.428C425.398 452.309 425.571 452.145 425.689 451.936C425.812 451.721 425.874 451.473 425.874 451.19C425.874 450.826 425.808 450.534 425.676 450.315C425.544 450.092 425.354 449.928 425.108 449.823C424.862 449.718 424.571 449.666 424.233 449.666H423.181Z" fill="#59597C"/>
<path d="M428.137 529.281V530.826H420.966L420.87 529.63L425.02 523.047H426.585L424.89 525.884L422.825 529.281H428.137ZM427.009 523.047V533H425.04V523.047H427.009Z" fill="#59597C"/>
<path d="M423.017 609.468L421.444 609.092L422.012 604.047H427.604V605.64H423.632L423.386 607.848C423.518 607.77 423.718 607.688 423.987 607.602C424.256 607.51 424.557 607.465 424.89 607.465C425.373 607.465 425.801 607.54 426.175 607.69C426.549 607.841 426.865 608.06 427.125 608.347C427.389 608.634 427.59 608.985 427.727 609.399C427.863 609.814 427.932 610.284 427.932 610.808C427.932 611.25 427.863 611.671 427.727 612.072C427.59 612.469 427.382 612.824 427.104 613.139C426.826 613.449 426.478 613.692 426.059 613.87C425.639 614.048 425.143 614.137 424.568 614.137C424.14 614.137 423.725 614.073 423.324 613.945C422.928 613.818 422.57 613.629 422.251 613.378C421.937 613.127 421.684 612.824 421.492 612.469C421.305 612.109 421.207 611.699 421.198 611.238H423.153C423.181 611.521 423.254 611.765 423.372 611.97C423.495 612.17 423.657 612.325 423.857 612.435C424.058 612.544 424.293 612.599 424.562 612.599C424.812 612.599 425.026 612.551 425.204 612.455C425.382 612.359 425.525 612.227 425.635 612.059C425.744 611.885 425.824 611.685 425.874 611.457C425.929 611.225 425.956 610.974 425.956 610.705C425.956 610.436 425.924 610.192 425.86 609.974C425.797 609.755 425.699 609.566 425.566 609.406C425.434 609.247 425.266 609.124 425.061 609.037C424.86 608.951 424.625 608.907 424.356 608.907C423.992 608.907 423.709 608.964 423.509 609.078C423.313 609.192 423.149 609.322 423.017 609.468Z" fill="#59597C"/>
<path d="M426.243 673.944H426.53V675.517H426.414C425.895 675.517 425.432 675.594 425.026 675.749C424.621 675.904 424.277 676.125 423.994 676.412C423.716 676.695 423.502 677.036 423.352 677.438C423.206 677.839 423.133 678.287 423.133 678.784V680.438C423.133 680.794 423.167 681.108 423.235 681.382C423.308 681.651 423.411 681.876 423.543 682.059C423.68 682.236 423.839 682.371 424.021 682.462C424.204 682.549 424.409 682.592 424.637 682.592C424.851 682.592 425.045 682.546 425.218 682.455C425.396 682.364 425.546 682.236 425.669 682.072C425.797 681.904 425.892 681.708 425.956 681.484C426.024 681.257 426.059 681.008 426.059 680.739C426.059 680.47 426.024 680.222 425.956 679.994C425.892 679.766 425.797 679.57 425.669 679.406C425.541 679.238 425.386 679.108 425.204 679.017C425.022 678.925 424.817 678.88 424.589 678.88C424.279 678.88 424.006 678.953 423.769 679.099C423.536 679.24 423.354 679.422 423.222 679.646C423.09 679.869 423.019 680.104 423.01 680.35L422.415 679.967C422.429 679.616 422.502 679.283 422.634 678.969C422.771 678.654 422.957 678.376 423.194 678.135C423.436 677.889 423.725 677.697 424.062 677.561C424.4 677.419 424.78 677.349 425.204 677.349C425.669 677.349 426.077 677.438 426.428 677.615C426.783 677.793 427.079 678.037 427.316 678.347C427.553 678.657 427.731 679.014 427.85 679.42C427.968 679.826 428.027 680.258 428.027 680.719C428.027 681.202 427.948 681.651 427.788 682.065C427.633 682.48 427.408 682.842 427.111 683.152C426.82 683.462 426.469 683.704 426.059 683.877C425.648 684.05 425.188 684.137 424.678 684.137C424.149 684.137 423.668 684.041 423.235 683.85C422.807 683.654 422.438 683.38 422.128 683.029C421.818 682.678 421.579 682.261 421.41 681.778C421.246 681.295 421.164 680.767 421.164 680.192V679.427C421.164 678.625 421.28 677.891 421.513 677.226C421.75 676.556 422.089 675.977 422.531 675.489C422.973 674.997 423.507 674.617 424.131 674.348C424.755 674.079 425.459 673.944 426.243 673.944Z" fill="#59597C"/>
<path d="M427.925 743.047V744.106L424.076 753H421.998L425.847 744.585H420.891V743.047H427.925Z" fill="#59597C"/>
<path d="M427.87 820.272C427.87 820.897 427.724 821.423 427.433 821.852C427.141 822.275 426.74 822.597 426.229 822.815C425.724 823.03 425.149 823.137 424.507 823.137C423.864 823.137 423.288 823.03 422.777 822.815C422.267 822.597 421.864 822.275 421.567 821.852C421.271 821.423 421.123 820.897 421.123 820.272C421.123 819.853 421.207 819.475 421.376 819.138C421.545 818.796 421.779 818.504 422.08 818.263C422.385 818.017 422.743 817.83 423.153 817.702C423.563 817.57 424.01 817.504 424.493 817.504C425.14 817.504 425.719 817.618 426.229 817.846C426.74 818.074 427.141 818.395 427.433 818.81C427.724 819.224 427.87 819.712 427.87 820.272ZM425.888 820.143C425.888 819.837 425.828 819.575 425.71 819.356C425.596 819.133 425.434 818.962 425.225 818.844C425.015 818.725 424.771 818.666 424.493 818.666C424.215 818.666 423.971 818.725 423.762 818.844C423.552 818.962 423.388 819.133 423.27 819.356C423.156 819.575 423.099 819.837 423.099 820.143C423.099 820.443 423.156 820.703 423.27 820.922C423.388 821.141 423.552 821.309 423.762 821.428C423.976 821.542 424.224 821.599 424.507 821.599C424.789 821.599 425.033 821.542 425.238 821.428C425.448 821.309 425.607 821.141 425.717 820.922C425.831 820.703 425.888 820.443 425.888 820.143ZM427.658 815.686C427.658 816.191 427.524 816.64 427.255 817.032C426.986 817.42 426.612 817.723 426.134 817.941C425.66 818.16 425.118 818.27 424.507 818.27C423.892 818.27 423.345 818.16 422.866 817.941C422.388 817.723 422.014 817.42 421.745 817.032C421.476 816.64 421.342 816.191 421.342 815.686C421.342 815.084 421.476 814.578 421.745 814.168C422.019 813.753 422.392 813.439 422.866 813.225C423.345 813.01 423.887 812.903 424.493 812.903C425.108 812.903 425.653 813.01 426.127 813.225C426.605 813.439 426.979 813.753 427.248 814.168C427.521 814.578 427.658 815.084 427.658 815.686ZM425.689 815.774C425.689 815.506 425.642 815.273 425.546 815.077C425.45 814.877 425.313 814.722 425.136 814.612C424.963 814.503 424.748 814.448 424.493 814.448C424.247 814.448 424.035 814.501 423.857 814.605C423.684 814.71 423.55 814.863 423.454 815.063C423.363 815.259 423.317 815.496 423.317 815.774C423.317 816.043 423.363 816.28 423.454 816.485C423.55 816.686 423.687 816.843 423.864 816.957C424.042 817.071 424.256 817.128 424.507 817.128C424.757 817.128 424.969 817.071 425.143 816.957C425.32 816.843 425.455 816.686 425.546 816.485C425.642 816.28 425.689 816.043 425.689 815.774Z" fill="#59597C"/>
<path d="M422.559 891.503H422.688C423.235 891.503 423.705 891.437 424.097 891.305C424.493 891.168 424.819 890.972 425.074 890.717C425.329 890.462 425.519 890.149 425.642 889.78C425.765 889.407 425.826 888.983 425.826 888.509V886.622C425.826 886.262 425.79 885.945 425.717 885.672C425.648 885.398 425.548 885.173 425.416 884.995C425.288 884.813 425.138 884.676 424.965 884.585C424.796 884.494 424.609 884.448 424.404 884.448C424.186 884.448 423.992 884.503 423.823 884.612C423.655 884.717 423.511 884.861 423.393 885.043C423.279 885.225 423.19 885.435 423.126 885.672C423.067 885.904 423.037 886.148 423.037 886.403C423.037 886.659 423.067 886.902 423.126 887.135C423.185 887.363 423.274 887.565 423.393 887.743C423.511 887.916 423.659 888.055 423.837 888.16C424.015 888.26 424.224 888.311 424.466 888.311C424.698 888.311 424.906 888.267 425.088 888.181C425.275 888.09 425.432 887.971 425.56 887.825C425.692 887.679 425.792 887.518 425.86 887.34C425.933 887.162 425.97 886.982 425.97 886.8L426.619 887.155C426.619 887.474 426.551 887.789 426.414 888.099C426.277 888.409 426.086 888.691 425.84 888.946C425.598 889.197 425.318 889.397 424.999 889.548C424.68 889.698 424.338 889.773 423.974 889.773C423.509 889.773 423.096 889.689 422.736 889.521C422.376 889.347 422.071 889.11 421.82 888.81C421.574 888.504 421.387 888.149 421.26 887.743C421.132 887.338 421.068 886.898 421.068 886.424C421.068 885.941 421.146 885.487 421.301 885.063C421.46 884.64 421.686 884.266 421.978 883.942C422.274 883.619 422.627 883.366 423.037 883.184C423.452 882.997 423.912 882.903 424.418 882.903C424.924 882.903 425.384 883.001 425.799 883.197C426.214 883.393 426.569 883.671 426.865 884.031C427.161 884.387 427.389 884.813 427.549 885.31C427.713 885.806 427.795 886.358 427.795 886.964V887.647C427.795 888.295 427.724 888.896 427.583 889.452C427.446 890.008 427.239 890.512 426.961 890.963C426.688 891.41 426.346 891.792 425.936 892.111C425.53 892.43 425.058 892.674 424.521 892.843C423.983 893.011 423.381 893.096 422.716 893.096H422.559V891.503Z" fill="#59597C"/>
</g>
<path opacity="0.4" d="M41.0419 172.436L27.5463 173.351L1.27295 268.293L15.196 265.834L41.0419 172.436Z" fill="#9A97A5"/>
<g filter="url(#filter2_f_186_85)">
<path d="M108.344 97.6618L78.0779 99.6122L87.7769 115.717L100.206 115.588L108.344 97.6618Z" fill="#C1BB81"/>
</g>
<g filter="url(#filter3_f_186_85)">
<path d="M122.344 97.6618L92.0779 99.6122L101.777 115.717L114.206 115.588L122.344 97.6618Z" fill="#C1BB81"/>
</g>
<g filter="url(#filter4_f_186_85)">
<path d="M118.344 97.6618L88.0779 99.6122L97.7769 115.717L110.206 115.588L118.344 97.6618Z" fill="#C1BB81"/>
</g>
<g filter="url(#filter5_f_186_85)">
<path d="M127.344 96.6618L97.0779 98.6122L106.777 114.717L119.206 114.588L127.344 96.6618Z" fill="#C1BB81"/>
</g>
<g filter="url(#filter6_f_186_85)">
<path d="M114.459 95.1791L78.3977 96.0397L90.7882 116.089L105.631 116.552L114.459 95.1791Z" fill="#C1BB81"/>
</g>
<g filter="url(#filter7_f_186_85)">
<path d="M152.332 50.9063L50.8676 55.5994L84.4349 110.675L126.146 111.021L152.332 50.9063Z" fill="#C1BB81"/>
</g>
<g filter="url(#filter8_f_186_85)">
<path d="M349.344 97.6618L319.078 99.6122L328.777 115.717L341.206 115.588L349.344 97.6618Z" fill="#C1BB81"/>
</g>
<g filter="url(#filter9_f_186_85)">
<path d="M363.344 97.6618L333.078 99.6122L342.777 115.717L355.206 115.588L363.344 97.6618Z" fill="#C1BB81"/>
</g>
<g filter="url(#filter10_f_186_85)">
<path d="M359.344 97.6618L329.078 99.6122L338.777 115.717L351.206 115.588L359.344 97.6618Z" fill="#C1BB81"/>
</g>
<g filter="url(#filter11_f_186_85)">
<path d="M368.344 96.6618L338.078 98.6122L347.777 114.717L360.206 114.588L368.344 96.6618Z" fill="#C1BB81"/>
</g>
<g filter="url(#filter12_f_186_85)">
<path d="M389.344 951.662L359.078 953.612L368.777 969.717L381.206 969.588L389.344 951.662Z" fill="#E90E0E"/>
</g>
<g filter="url(#filter13_f_186_85)">
<path d="M413.344 950.662L383.078 952.612L392.777 968.717L405.206 968.588L413.344 950.662Z" fill="#E90E0E"/>
</g>
<g filter="url(#filter14_f_186_85)">
<path d="M109.344 951.662L79.0779 953.612L88.7769 969.717L101.206 969.588L109.344 951.662Z" fill="#E90E0E"/>
</g>
<g filter="url(#filter15_f_186_85)">
<path d="M133.344 950.662L103.078 952.612L112.777 968.717L125.206 968.588L133.344 950.662Z" fill="#E90E0E"/>
</g>
<g filter="url(#filter16_f_186_85)">
<path d="M355.459 95.1791L319.398 96.0397L331.788 116.089L346.631 116.552L355.459 95.1791Z" fill="#C1BB81"/>
</g>
<g filter="url(#filter17_f_186_85)">
<path d="M393.332 50.9063L291.868 55.5994L325.435 110.675L367.146 111.021L393.332 50.9063Z" fill="#C1BB81"/>
</g>
<defs>
<filter id="filter0_f_186_85" x="-184.347" y="198.863" width="653.046" height="653.046" filterUnits="userSpaceOnUse" color-interpolation-filters="sRGB">
<feFlood flood-opacity="0" result="BackgroundImageFix"/>
<feBlend mode="normal" in="SourceGraphic" in2="BackgroundImageFix" result="shape"/>
<feGaussianBlur stdDeviation="102.673" result="effect1_foregroundBlur_186_85"/>
</filter>
<filter id="filter1_f_186_85" x="-162.699" y="128.653" width="653.046" height="653.046" filterUnits="userSpaceOnUse" color-interpolation-filters="sRGB">
<feFlood flood-opacity="0" result="BackgroundImageFix"/>
<feBlend mode="normal" in="SourceGraphic" in2="BackgroundImageFix" result="shape"/>
<feGaussianBlur stdDeviation="102.673" result="effect1_foregroundBlur_186_85"/>
</filter>
<filter id="filter2_f_186_85" x="68.0779" y="87.6619" width="50.2659" height="38.0549" filterUnits="userSpaceOnUse" color-interpolation-filters="sRGB">
<feFlood flood-opacity="0" result="BackgroundImageFix"/>
<feBlend mode="normal" in="SourceGraphic" in2="BackgroundImageFix" result="shape"/>
<feGaussianBlur stdDeviation="5" result="effect1_foregroundBlur_186_85"/>
</filter>
<filter id="filter3_f_186_85" x="82.0779" y="87.6619" width="50.2659" height="38.0549" filterUnits="userSpaceOnUse" color-interpolation-filters="sRGB">
<feFlood flood-opacity="0" result="BackgroundImageFix"/>
<feBlend mode="normal" in="SourceGraphic" in2="BackgroundImageFix" result="shape"/>
<feGaussianBlur stdDeviation="5" result="effect1_foregroundBlur_186_85"/>
</filter>
<filter id="filter4_f_186_85" x="78.0779" y="87.6619" width="50.2659" height="38.0549" filterUnits="userSpaceOnUse" color-interpolation-filters="sRGB">
<feFlood flood-opacity="0" result="BackgroundImageFix"/>
<feBlend mode="normal" in="SourceGraphic" in2="BackgroundImageFix" result="shape"/>
<feGaussianBlur stdDeviation="5" result="effect1_foregroundBlur_186_85"/>
</filter>
<filter id="filter5_f_186_85" x="87.0779" y="86.6619" width="50.2659" height="38.0549" filterUnits="userSpaceOnUse" color-interpolation-filters="sRGB">
<feFlood flood-opacity="0" result="BackgroundImageFix"/>
<feBlend mode="normal" in="SourceGraphic" in2="BackgroundImageFix" result="shape"/>
<feGaussianBlur stdDeviation="5" result="effect1_foregroundBlur_186_85"/>
</filter>
<filter id="filter6_f_186_85" x="68.3977" y="85.1792" width="56.0614" height="41.3733" filterUnits="userSpaceOnUse" color-interpolation-filters="sRGB">
<feFlood flood-opacity="0" result="BackgroundImageFix"/>
<feBlend mode="normal" in="SourceGraphic" in2="BackgroundImageFix" result="shape"/>
<feGaussianBlur stdDeviation="5" result="effect1_foregroundBlur_186_85"/>
</filter>
<filter id="filter7_f_186_85" x="0.867676" y="0.90625" width="201.464" height="160.115" filterUnits="userSpaceOnUse" color-interpolation-filters="sRGB">
<feFlood flood-opacity="0" result="BackgroundImageFix"/>
<feBlend mode="normal" in="SourceGraphic" in2="BackgroundImageFix" result="shape"/>
<feGaussianBlur stdDeviation="25" result="effect1_foregroundBlur_186_85"/>
</filter>
<filter id="filter8_f_186_85" x="309.078" y="87.6619" width="50.2659" height="38.0549" filterUnits="userSpaceOnUse" color-interpolation-filters="sRGB">
<feFlood flood-opacity="0" result="BackgroundImageFix"/>
<feBlend mode="normal" in="SourceGraphic" in2="BackgroundImageFix" result="shape"/>
<feGaussianBlur stdDeviation="5" result="effect1_foregroundBlur_186_85"/>
</filter>
<filter id="filter9_f_186_85" x="323.078" y="87.6619" width="50.2659" height="38.0549" filterUnits="userSpaceOnUse" color-interpolation-filters="sRGB">
<feFlood flood-opacity="0" result="BackgroundImageFix"/>
<feBlend mode="normal" in="SourceGraphic" in2="BackgroundImageFix" result="shape"/>
<feGaussianBlur stdDeviation="5" result="effect1_foregroundBlur_186_85"/>
</filter>
<filter id="filter10_f_186_85" x="319.078" y="87.6619" width="50.2659" height="38.0549" filterUnits="userSpaceOnUse" color-interpolation-filters="sRGB">
<feFlood flood-opacity="0" result="BackgroundImageFix"/>
<feBlend mode="normal" in="SourceGraphic" in2="BackgroundImageFix" result="shape"/>
<feGaussianBlur stdDeviation="5" result="effect1_foregroundBlur_186_85"/>
</filter>
<filter id="filter11_f_186_85" x="328.078" y="86.6619" width="50.2659" height="38.0549" filterUnits="userSpaceOnUse" color-interpolation-filters="sRGB">
<feFlood flood-opacity="0" result="BackgroundImageFix"/>
<feBlend mode="normal" in="SourceGraphic" in2="BackgroundImageFix" result="shape"/>
<feGaussianBlur stdDeviation="5" result="effect1_foregroundBlur_186_85"/>
</filter>
<filter id="filter12_f_186_85" x="349.078" y="941.662" width="50.2659" height="38.0549" filterUnits="userSpaceOnUse" color-interpolation-filters="sRGB">
<feFlood flood-opacity="0" result="BackgroundImageFix"/>
<feBlend mode="normal" in="SourceGraphic" in2="BackgroundImageFix" result="shape"/>
<feGaussianBlur stdDeviation="5" result="effect1_foregroundBlur_186_85"/>
</filter>
<filter id="filter13_f_186_85" x="373.078" y="940.662" width="50.2659" height="38.0549" filterUnits="userSpaceOnUse" color-interpolation-filters="sRGB">
<feFlood flood-opacity="0" result="BackgroundImageFix"/>
<feBlend mode="normal" in="SourceGraphic" in2="BackgroundImageFix" result="shape"/>
<feGaussianBlur stdDeviation="5" result="effect1_foregroundBlur_186_85"/>
</filter>
<filter id="filter14_f_186_85" x="69.0779" y="941.662" width="50.2659" height="38.0549" filterUnits="userSpaceOnUse" color-interpolation-filters="sRGB">
<feFlood flood-opacity="0" result="BackgroundImageFix"/>
<feBlend mode="normal" in="SourceGraphic" in2="BackgroundImageFix" result="shape"/>
<feGaussianBlur stdDeviation="5" result="effect1_foregroundBlur_186_85"/>
</filter>
<filter id="filter15_f_186_85" x="93.0779" y="940.662" width="50.2659" height="38.0549" filterUnits="userSpaceOnUse" color-interpolation-filters="sRGB">
<feFlood flood-opacity="0" result="BackgroundImageFix"/>
<feBlend mode="normal" in="SourceGraphic" in2="BackgroundImageFix" result="shape"/>
<feGaussianBlur stdDeviation="5" result="effect1_foregroundBlur_186_85"/>
</filter>
<filter id="filter16_f_186_85" x="309.398" y="85.1792" width="56.0613" height="41.3733" filterUnits="userSpaceOnUse" color-interpolation-filters="sRGB">
<feFlood flood-opacity="0" result="BackgroundImageFix"/>
<feBlend mode="normal" in="SourceGraphic" in2="BackgroundImageFix" result="shape"/>
<feGaussianBlur stdDeviation="5" result="effect1_foregroundBlur_186_85"/>
</filter>
<filter id="filter17_f_186_85" x="241.868" y="0.90625" width="201.464" height="160.115" filterUnits="userSpaceOnUse" color-interpolation-filters="sRGB">
<feFlood flood-opacity="0" result="BackgroundImageFix"/>
<feBlend mode="normal" in="SourceGraphic" in2="BackgroundImageFix" result="shape"/>
<feGaussianBlur stdDeviation="25" result="effect1_foregroundBlur_186_85"/>
</filter>
<linearGradient id="paint0_linear_186_85" x1="440.332" y1="252.13" x2="16.9013" y2="252.988" gradientUnits="userSpaceOnUse">
<stop stop-color="#231349"/>
<stop offset="0.0278123" stop-color="#563C8D"/>
<stop offset="0.0627156" stop-color="#481F9D"/>
<stop offset="0.904987" stop-color="#392173"/>
<stop offset="0.934151" stop-color="#5B33C0"/>
<stop offset="0.965809" stop-color="#271653"/>
<stop offset="0.9911" stop-color="#251458"/>
</linearGradient>
<linearGradient id="paint1_linear_186_85" x1="506.805" y1="120" x2="547.396" y2="583.765" gradientUnits="userSpaceOnUse">
<stop stop-color="#2E1371"/>
<stop offset="1" stop-color="#130B2B"/>
</linearGradient>
<clipPath id="clip0_186_85">
<rect x="447" y="120" width="833" height="406" rx="51.3367" transform="rotate(90 447 120)" fill="white"/>
</clipPath>
</defs>
</svg>
