<svg width="147" height="56" viewBox="0 0 147 56" fill="none" xmlns="http://www.w3.org/2000/svg">
<path d="M145.912 27.748C145.903 51.1259 145.912 55.8681 72.9763 55.8683C0.0407944 55.8685 0.00176438 51.1076 0.0104219 27.7298C0.0190794 4.35193 0.0107133 0.000487031 72.9768 0.00962567C145.943 0.0187643 145.921 4.3702 145.912 27.748Z" fill="url(#paint0_linear_31_34)"/>
<g filter="url(#filter0_b_31_34)">
<path d="M146.377 26.4199C146.369 48.9057 149.579 52.96 76.382 52.9508C6.38689 52.9421 6.34841 48.8882 6.35674 26.4023C6.36507 3.91647 6.35668 -1.23183e-06 76.382 0.00876909C146.407 0.0175394 146.385 3.934 146.377 26.4199Z" fill="url(#paint1_linear_31_34)"/>
<path d="M145.204 26.4197C145.204 27.3845 145.209 28.3076 145.214 29.1918C145.238 33.5614 145.257 36.9805 144.589 39.7813C144.199 41.4191 143.583 42.7847 142.621 43.9532C141.658 45.1236 140.299 46.1564 138.337 47.0547C134.369 48.8722 128.091 50.0726 118.113 50.8017C108.166 51.5284 94.6797 51.7804 76.3824 51.7781C58.8867 51.7759 45.7974 51.5206 35.9975 50.7915C26.1714 50.0604 19.7738 48.8591 15.5877 47.0308C11.4961 45.2436 9.55951 42.88 8.57198 39.6886C7.54005 36.3538 7.5274 32.0892 7.52951 26.4025C7.53162 20.7146 7.54439 16.4595 8.57452 13.138C9.55956 9.96195 11.4906 7.61601 15.5787 5.8463C19.7621 4.03531 26.1576 2.85251 35.9847 2.13666C45.7854 1.42273 58.8778 1.17935 76.3815 1.18154C93.8852 1.18373 106.977 1.43039 116.776 2.14678C126.602 2.86509 132.995 4.0495 137.176 5.86148C141.261 7.63211 143.189 9.97838 144.171 13.1547C145.198 16.4766 145.206 20.7317 145.204 26.4197Z" stroke="url(#paint2_linear_31_34)" stroke-width="2.34554"/>
</g>
<path d="M29.1222 28.0181H26.4049L26.3903 26.6777H28.7633C29.1637 26.6777 29.5031 26.6191 29.7814 26.502C30.0646 26.3799 30.2794 26.2065 30.4259 25.9819C30.5724 25.7524 30.6456 25.4766 30.6456 25.1543C30.6456 24.7979 30.5773 24.5073 30.4406 24.2827C30.3038 24.0581 30.0939 23.8945 29.8107 23.792C29.5323 23.6895 29.1759 23.6382 28.7413 23.6382H26.9615V32.8374H25.1232V22.1733H28.7413C29.3273 22.1733 29.8497 22.2295 30.3087 22.3418C30.7726 22.4541 31.1656 22.6299 31.4879 22.8691C31.8151 23.1035 32.0616 23.4014 32.2277 23.7627C32.3986 24.124 32.484 24.5537 32.484 25.0518C32.484 25.4912 32.379 25.894 32.1691 26.2603C31.9591 26.6216 31.649 26.917 31.2389 27.1465C30.8287 27.376 30.3185 27.5127 29.7081 27.5566L29.1222 28.0181ZM29.0416 32.8374H25.8263L26.6539 31.3799H29.0416C29.4567 31.3799 29.8033 31.3115 30.0817 31.1748C30.36 31.0332 30.5675 30.8403 30.7042 30.5962C30.8458 30.3472 30.9166 30.0566 30.9166 29.7246C30.9166 29.3779 30.8556 29.0776 30.7335 28.8237C30.6115 28.5649 30.4186 28.3672 30.1549 28.2305C29.8912 28.0889 29.547 28.0181 29.1222 28.0181H27.0568L27.0714 26.6777H29.7594L30.1769 27.1831C30.7628 27.2026 31.2438 27.332 31.6198 27.5713C32.0006 27.8105 32.2838 28.1206 32.4694 28.5015C32.6549 28.8823 32.7477 29.2925 32.7477 29.7319C32.7477 30.4106 32.5988 30.9795 32.3009 31.4385C32.0079 31.8975 31.5856 32.2466 31.0338 32.4858C30.4821 32.7202 29.818 32.8374 29.0416 32.8374ZM43.8541 27.2124V27.7983C43.8541 28.604 43.7491 29.3267 43.5392 29.9663C43.3292 30.606 43.0289 31.1504 42.6383 31.5996C42.2526 32.0488 41.7887 32.3931 41.2467 32.6323C40.7047 32.8667 40.1041 32.9839 39.4449 32.9839C38.7906 32.9839 38.1925 32.8667 37.6505 32.6323C37.1134 32.3931 36.6471 32.0488 36.2516 31.5996C35.8561 31.1504 35.5485 30.606 35.3287 29.9663C35.1139 29.3267 35.0065 28.604 35.0065 27.7983V27.2124C35.0065 26.4067 35.1139 25.6865 35.3287 25.0518C35.5436 24.4121 35.8463 23.8677 36.2369 23.4185C36.6324 22.9644 37.0988 22.6201 37.6359 22.3857C38.1779 22.1465 38.776 22.0269 39.4303 22.0269C40.0895 22.0269 40.6901 22.1465 41.2321 22.3857C41.774 22.6201 42.2404 22.9644 42.631 23.4185C43.0216 23.8677 43.3219 24.4121 43.5319 25.0518C43.7467 25.6865 43.8541 26.4067 43.8541 27.2124ZM42.0157 27.7983V27.1978C42.0157 26.6021 41.9572 26.0771 41.84 25.623C41.7277 25.1641 41.5592 24.7808 41.3346 24.4731C41.1149 24.1606 40.8439 23.9263 40.5216 23.77C40.1993 23.6089 39.8356 23.5283 39.4303 23.5283C39.025 23.5283 38.6637 23.6089 38.3463 23.77C38.0289 23.9263 37.7579 24.1606 37.5333 24.4731C37.3136 24.7808 37.1451 25.1641 37.028 25.623C36.9108 26.0771 36.8522 26.6021 36.8522 27.1978V27.7983C36.8522 28.394 36.9108 28.9214 37.028 29.3804C37.1451 29.8394 37.316 30.2275 37.5406 30.5449C37.7701 30.8574 38.0436 31.0942 38.361 31.2554C38.6783 31.4116 39.0397 31.4897 39.4449 31.4897C39.8551 31.4897 40.2189 31.4116 40.5363 31.2554C40.8536 31.0942 41.1222 30.8574 41.3419 30.5449C41.5616 30.2275 41.7277 29.8394 41.84 29.3804C41.9572 28.9214 42.0157 28.394 42.0157 27.7983ZM54.9459 27.2124V27.7983C54.9459 28.604 54.8409 29.3267 54.631 29.9663C54.421 30.606 54.1207 31.1504 53.7301 31.5996C53.3444 32.0488 52.8805 32.3931 52.3385 32.6323C51.7965 32.8667 51.1959 32.9839 50.5367 32.9839C49.8824 32.9839 49.2843 32.8667 48.7423 32.6323C48.2052 32.3931 47.7389 32.0488 47.3434 31.5996C46.9479 31.1504 46.6403 30.606 46.4205 29.9663C46.2057 29.3267 46.0983 28.604 46.0983 27.7983V27.2124C46.0983 26.4067 46.2057 25.6865 46.4205 25.0518C46.6354 24.4121 46.9381 23.8677 47.3287 23.4185C47.7242 22.9644 48.1906 22.6201 48.7277 22.3857C49.2697 22.1465 49.8678 22.0269 50.5221 22.0269C51.1813 22.0269 51.7819 22.1465 52.3239 22.3857C52.8658 22.6201 53.3322 22.9644 53.7228 23.4185C54.1134 23.8677 54.4137 24.4121 54.6237 25.0518C54.8385 25.6865 54.9459 26.4067 54.9459 27.2124ZM53.1075 27.7983V27.1978C53.1075 26.6021 53.049 26.0771 52.9318 25.623C52.8195 25.1641 52.651 24.7808 52.4264 24.4731C52.2067 24.1606 51.9357 23.9263 51.6134 23.77C51.2911 23.6089 50.9274 23.5283 50.5221 23.5283C50.1168 23.5283 49.7555 23.6089 49.4381 23.77C49.1207 23.9263 48.8497 24.1606 48.6251 24.4731C48.4054 24.7808 48.2369 25.1641 48.1198 25.623C48.0026 26.0771 47.944 26.6021 47.944 27.1978V27.7983C47.944 28.394 48.0026 28.9214 48.1198 29.3804C48.2369 29.8394 48.4078 30.2275 48.6324 30.5449C48.8619 30.8574 49.1354 31.0942 49.4528 31.2554C49.7701 31.4116 50.1315 31.4897 50.5367 31.4897C50.9469 31.4897 51.3107 31.4116 51.6281 31.2554C51.9454 31.0942 52.214 30.8574 52.4337 30.5449C52.6534 30.2275 52.8195 29.8394 52.9318 29.3804C53.049 28.9214 53.1075 28.394 53.1075 27.7983ZM59.3727 22.1733V32.8374H57.5343V22.1733H59.3727ZM65.7814 22.1733L61.4601 27.3076L58.9991 29.915L58.6769 28.0913L60.4347 25.9233L63.5402 22.1733H65.7814ZM63.8038 32.8374L60.2955 27.7837L61.5626 26.5312L65.9865 32.8374H63.8038ZM76.2828 22.1733V32.8374H74.4591V22.1733H76.2828ZM79.63 22.1733V23.6382H71.1412V22.1733H79.63ZM83.7491 22.1733V32.8374H81.9108V22.1733H83.7491ZM93.0831 29.3657H94.9142C94.8556 30.064 94.6603 30.6865 94.3282 31.2334C93.9962 31.7754 93.5299 32.2026 92.9293 32.5151C92.3287 32.8276 91.5988 32.9839 90.7394 32.9839C90.0802 32.9839 89.4869 32.8667 88.9596 32.6323C88.4323 32.3931 87.9806 32.0562 87.6046 31.6216C87.2286 31.1821 86.9406 30.6523 86.7404 30.0322C86.545 29.4121 86.4474 28.7188 86.4474 27.9521V27.0659C86.4474 26.2993 86.5475 25.606 86.7477 24.9858C86.9528 24.3657 87.2457 23.8359 87.6266 23.3965C88.0074 22.9521 88.464 22.6128 88.9962 22.3784C89.5333 22.144 90.1364 22.0269 90.8053 22.0269C91.6549 22.0269 92.3727 22.1831 92.9586 22.4956C93.5446 22.8081 93.9987 23.2402 94.3209 23.792C94.6481 24.3438 94.8483 24.9761 94.9215 25.689H93.0905C93.0416 25.23 92.9342 24.8369 92.7682 24.5098C92.6071 24.1826 92.3678 23.9336 92.0504 23.7627C91.733 23.5869 91.318 23.499 90.8053 23.499C90.3854 23.499 90.0192 23.5771 89.7067 23.7334C89.3942 23.8896 89.1329 24.1191 88.923 24.4219C88.713 24.7246 88.5543 25.0981 88.4469 25.5425C88.3444 25.9819 88.2931 26.4849 88.2931 27.0513V27.9521C88.2931 28.4893 88.3395 28.9775 88.4323 29.417C88.5299 29.8516 88.6764 30.2251 88.8717 30.5376C89.0719 30.8501 89.3258 31.0918 89.6334 31.2627C89.941 31.4336 90.3097 31.519 90.7394 31.519C91.2618 31.519 91.6842 31.436 92.0065 31.27C92.3336 31.104 92.5802 30.8623 92.7462 30.5449C92.9171 30.2227 93.0294 29.8296 93.0831 29.3657ZM99.1725 22.1733V32.8374H97.3341V22.1733H99.1725ZM105.581 22.1733L101.26 27.3076L98.799 29.915L98.4767 28.0913L100.234 25.9233L103.34 22.1733H105.581ZM103.604 32.8374L100.095 27.7837L101.362 26.5312L105.786 32.8374H103.604ZM114.542 31.3799V32.8374H108.88V31.3799H114.542ZM109.4 22.1733V32.8374H107.562V22.1733H109.4ZM113.802 26.6265V28.062H108.88V26.6265H113.802ZM114.505 22.1733V23.6382H108.88V22.1733H114.505ZM121.327 22.1733V32.8374H119.503V22.1733H121.327ZM124.674 22.1733V23.6382H116.185V22.1733H124.674Z" fill="white"/>
<defs>
<filter id="filter0_b_31_34" x="-40.5543" y="-46.9021" width="233.861" height="146.764" filterUnits="userSpaceOnUse" color-interpolation-filters="sRGB">
<feFlood flood-opacity="0" result="BackgroundImageFix"/>
<feGaussianBlur in="BackgroundImage" stdDeviation="23.4554"/>
<feComposite in2="SourceAlpha" operator="in" result="effect1_backgroundBlur_31_34"/>
<feBlend mode="normal" in="SourceGraphic" in2="effect1_backgroundBlur_31_34" result="shape"/>
</filter>
<linearGradient id="paint0_linear_31_34" x1="72.9768" y1="-14.5904" x2="72.9662" y2="70.0682" gradientUnits="userSpaceOnUse">
<stop stop-color="#302961"/>
<stop offset="0.134132" stop-color="#0CF4D1"/>
<stop offset="0.390084" stop-color="#493F95"/>
<stop offset="0.806751" stop-color="#221D45"/>
<stop offset="1" stop-color="#211C49"/>
</linearGradient>
<linearGradient id="paint1_linear_31_34" x1="-46.1467" y1="15.2001" x2="131.939" y2="54.6392" gradientUnits="userSpaceOnUse">
<stop stop-color="#441F83"/>
<stop offset="1" stop-color="#4E63A9"/>
</linearGradient>
<linearGradient id="paint2_linear_31_34" x1="36.6015" y1="-8.75541" x2="59.8637" y2="54.1324" gradientUnits="userSpaceOnUse">
<stop stop-color="#09FBD3"/>
<stop offset="1" stop-color="#09FBD3" stop-opacity="0"/>
</linearGradient>
</defs>
</svg>
