<svg width="264" height="174" viewBox="0 0 264 174" fill="none" xmlns="http://www.w3.org/2000/svg">
<g filter="url(#filter0_d_31_34)">
<path d="M204.912 63.748C204.903 87.1259 204.912 91.8681 131.976 91.8683C59.0408 91.8685 59.0018 87.1076 59.0104 63.7298C59.0191 40.3519 59.0107 36.0005 131.977 36.0096C204.943 36.0188 204.921 40.3702 204.912 63.748Z" fill="url(#paint0_linear_31_34)"/>
</g>
<g filter="url(#filter1_d_31_34)">
<g filter="url(#filter2_b_31_34)">
<path d="M205.377 62.4199C205.369 84.9057 208.579 88.96 135.382 88.9508C65.3869 88.9421 65.3484 84.8882 65.3567 62.4023C65.3651 39.9165 65.3567 36 135.382 36.0088C205.407 36.0175 205.385 39.934 205.377 62.4199Z" fill="url(#paint1_linear_31_34)"/>
<path d="M204.204 62.4197C204.204 63.3845 204.209 64.3076 204.214 65.1918C204.238 69.5614 204.257 72.9805 203.589 75.7813C203.199 77.4191 202.583 78.7847 201.621 79.9532C200.658 81.1236 199.299 82.1564 197.337 83.0547C193.369 84.8722 187.091 86.0726 177.113 86.8017C167.166 87.5284 153.68 87.7804 135.382 87.7781C117.887 87.7759 104.797 87.5206 94.9975 86.7915C85.1714 86.0604 78.7738 84.8591 74.5877 83.0308C70.4961 81.2436 68.5595 78.88 67.572 75.6886C66.5401 72.3538 66.5274 68.0892 66.5295 62.4025C66.5316 56.7146 66.5444 52.4595 67.5745 49.138C68.5596 45.962 70.4906 43.616 74.5787 41.8463C78.7621 40.0353 85.1576 38.8525 94.9847 38.1367C104.785 37.4227 117.878 37.1793 135.382 37.1815C152.885 37.1837 165.977 37.4304 175.776 38.1468C185.602 38.8651 191.995 40.0495 196.176 41.8615C200.261 43.6321 202.189 45.9784 203.171 49.1547C204.198 52.4766 204.206 56.7317 204.204 62.4197Z" stroke="url(#paint2_linear_31_34)" stroke-width="2.34554"/>
</g>
</g>
<path d="M88.1222 64.0181H85.4049L85.3903 62.6777H87.7633C88.1637 62.6777 88.5031 62.6191 88.7814 62.502C89.0646 62.3799 89.2794 62.2065 89.4259 61.9819C89.5724 61.7524 89.6456 61.4766 89.6456 61.1543C89.6456 60.7979 89.5773 60.5073 89.4406 60.2827C89.3038 60.0581 89.0939 59.8945 88.8107 59.792C88.5323 59.6895 88.1759 59.6382 87.7413 59.6382H85.9615V68.8374H84.1232V58.1733H87.7413C88.3273 58.1733 88.8497 58.2295 89.3087 58.3418C89.7726 58.4541 90.1656 58.6299 90.4879 58.8691C90.8151 59.1035 91.0616 59.4014 91.2277 59.7627C91.3986 60.124 91.484 60.5537 91.484 61.0518C91.484 61.4912 91.379 61.894 91.1691 62.2603C90.9591 62.6216 90.649 62.917 90.2389 63.1465C89.8287 63.376 89.3185 63.5127 88.7081 63.5566L88.1222 64.0181ZM88.0416 68.8374H84.8263L85.6539 67.3799H88.0416C88.4567 67.3799 88.8033 67.3115 89.0817 67.1748C89.36 67.0332 89.5675 66.8403 89.7042 66.5962C89.8458 66.3472 89.9166 66.0566 89.9166 65.7246C89.9166 65.3779 89.8556 65.0776 89.7335 64.8237C89.6115 64.5649 89.4186 64.3672 89.1549 64.2305C88.8912 64.0889 88.547 64.0181 88.1222 64.0181H86.0568L86.0714 62.6777H88.7594L89.1769 63.1831C89.7628 63.2026 90.2438 63.332 90.6198 63.5713C91.0006 63.8105 91.2838 64.1206 91.4694 64.5015C91.6549 64.8823 91.7477 65.2925 91.7477 65.7319C91.7477 66.4106 91.5988 66.9795 91.3009 67.4385C91.0079 67.8975 90.5856 68.2466 90.0338 68.4858C89.4821 68.7202 88.818 68.8374 88.0416 68.8374ZM102.854 63.2124V63.7983C102.854 64.604 102.749 65.3267 102.539 65.9663C102.329 66.606 102.029 67.1504 101.638 67.5996C101.253 68.0488 100.789 68.3931 100.247 68.6323C99.7047 68.8667 99.1041 68.9839 98.4449 68.9839C97.7906 68.9839 97.1925 68.8667 96.6505 68.6323C96.1134 68.3931 95.6471 68.0488 95.2516 67.5996C94.8561 67.1504 94.5485 66.606 94.3287 65.9663C94.1139 65.3267 94.0065 64.604 94.0065 63.7983V63.2124C94.0065 62.4067 94.1139 61.6865 94.3287 61.0518C94.5436 60.4121 94.8463 59.8677 95.2369 59.4185C95.6324 58.9644 96.0988 58.6201 96.6359 58.3857C97.1779 58.1465 97.776 58.0269 98.4303 58.0269C99.0895 58.0269 99.6901 58.1465 100.232 58.3857C100.774 58.6201 101.24 58.9644 101.631 59.4185C102.022 59.8677 102.322 60.4121 102.532 61.0518C102.747 61.6865 102.854 62.4067 102.854 63.2124ZM101.016 63.7983V63.1978C101.016 62.6021 100.957 62.0771 100.84 61.623C100.728 61.1641 100.559 60.7808 100.335 60.4731C100.115 60.1606 99.8439 59.9263 99.5216 59.77C99.1993 59.6089 98.8356 59.5283 98.4303 59.5283C98.025 59.5283 97.6637 59.6089 97.3463 59.77C97.0289 59.9263 96.7579 60.1606 96.5333 60.4731C96.3136 60.7808 96.1451 61.1641 96.028 61.623C95.9108 62.0771 95.8522 62.6021 95.8522 63.1978V63.7983C95.8522 64.394 95.9108 64.9214 96.028 65.3804C96.1451 65.8394 96.316 66.2275 96.5406 66.5449C96.7701 66.8574 97.0436 67.0942 97.361 67.2554C97.6783 67.4116 98.0397 67.4897 98.4449 67.4897C98.8551 67.4897 99.2189 67.4116 99.5363 67.2554C99.8536 67.0942 100.122 66.8574 100.342 66.5449C100.562 66.2275 100.728 65.8394 100.84 65.3804C100.957 64.9214 101.016 64.394 101.016 63.7983ZM113.946 63.2124V63.7983C113.946 64.604 113.841 65.3267 113.631 65.9663C113.421 66.606 113.121 67.1504 112.73 67.5996C112.344 68.0488 111.88 68.3931 111.339 68.6323C110.797 68.8667 110.196 68.9839 109.537 68.9839C108.882 68.9839 108.284 68.8667 107.742 68.6323C107.205 68.3931 106.739 68.0488 106.343 67.5996C105.948 67.1504 105.64 66.606 105.421 65.9663C105.206 65.3267 105.098 64.604 105.098 63.7983V63.2124C105.098 62.4067 105.206 61.6865 105.421 61.0518C105.635 60.4121 105.938 59.8677 106.329 59.4185C106.724 58.9644 107.191 58.6201 107.728 58.3857C108.27 58.1465 108.868 58.0269 109.522 58.0269C110.181 58.0269 110.782 58.1465 111.324 58.3857C111.866 58.6201 112.332 58.9644 112.723 59.4185C113.113 59.8677 113.414 60.4121 113.624 61.0518C113.839 61.6865 113.946 62.4067 113.946 63.2124ZM112.108 63.7983V63.1978C112.108 62.6021 112.049 62.0771 111.932 61.623C111.819 61.1641 111.651 60.7808 111.426 60.4731C111.207 60.1606 110.936 59.9263 110.613 59.77C110.291 59.6089 109.927 59.5283 109.522 59.5283C109.117 59.5283 108.755 59.6089 108.438 59.77C108.121 59.9263 107.85 60.1606 107.625 60.4731C107.405 60.7808 107.237 61.1641 107.12 61.623C107.003 62.0771 106.944 62.6021 106.944 63.1978V63.7983C106.944 64.394 107.003 64.9214 107.12 65.3804C107.237 65.8394 107.408 66.2275 107.632 66.5449C107.862 66.8574 108.135 67.0942 108.453 67.2554C108.77 67.4116 109.131 67.4897 109.537 67.4897C109.947 67.4897 110.311 67.4116 110.628 67.2554C110.945 67.0942 111.214 66.8574 111.434 66.5449C111.653 66.2275 111.819 65.8394 111.932 65.3804C112.049 64.9214 112.108 64.394 112.108 63.7983ZM118.373 58.1733V68.8374H116.534V58.1733H118.373ZM124.781 58.1733L120.46 63.3076L117.999 65.915L117.677 64.0913L119.435 61.9233L122.54 58.1733H124.781ZM122.804 68.8374L119.296 63.7837L120.563 62.5312L124.986 68.8374H122.804ZM135.283 58.1733V68.8374H133.459V58.1733H135.283ZM138.63 58.1733V59.6382H130.141V58.1733H138.63ZM142.749 58.1733V68.8374H140.911V58.1733H142.749ZM152.083 65.3657H153.914C153.856 66.064 153.66 66.6865 153.328 67.2334C152.996 67.7754 152.53 68.2026 151.929 68.5151C151.329 68.8276 150.599 68.9839 149.739 68.9839C149.08 68.9839 148.487 68.8667 147.96 68.6323C147.432 68.3931 146.981 68.0562 146.605 67.6216C146.229 67.1821 145.941 66.6523 145.74 66.0322C145.545 65.4121 145.447 64.7188 145.447 63.9521V63.0659C145.447 62.2993 145.547 61.606 145.748 60.9858C145.953 60.3657 146.246 59.8359 146.627 59.3965C147.007 58.9521 147.464 58.6128 147.996 58.3784C148.533 58.144 149.136 58.0269 149.805 58.0269C150.655 58.0269 151.373 58.1831 151.959 58.4956C152.545 58.8081 152.999 59.2402 153.321 59.792C153.648 60.3438 153.848 60.9761 153.922 61.689H152.09C152.042 61.23 151.934 60.8369 151.768 60.5098C151.607 60.1826 151.368 59.9336 151.05 59.7627C150.733 59.5869 150.318 59.499 149.805 59.499C149.385 59.499 149.019 59.5771 148.707 59.7334C148.394 59.8896 148.133 60.1191 147.923 60.4219C147.713 60.7246 147.554 61.0981 147.447 61.5425C147.344 61.9819 147.293 62.4849 147.293 63.0513V63.9521C147.293 64.4893 147.339 64.9775 147.432 65.417C147.53 65.8516 147.676 66.2251 147.872 66.5376C148.072 66.8501 148.326 67.0918 148.633 67.2627C148.941 67.4336 149.31 67.519 149.739 67.519C150.262 67.519 150.684 67.436 151.006 67.27C151.334 67.104 151.58 66.8623 151.746 66.5449C151.917 66.2227 152.029 65.8296 152.083 65.3657ZM158.172 58.1733V68.8374H156.334V58.1733H158.172ZM164.581 58.1733L160.26 63.3076L157.799 65.915L157.477 64.0913L159.234 61.9233L162.34 58.1733H164.581ZM162.604 68.8374L159.095 63.7837L160.362 62.5312L164.786 68.8374H162.604ZM173.542 67.3799V68.8374H167.88V67.3799H173.542ZM168.4 58.1733V68.8374H166.562V58.1733H168.4ZM172.802 62.6265V64.062H167.88V62.6265H172.802ZM173.505 58.1733V59.6382H167.88V58.1733H173.505ZM180.327 58.1733V68.8374H178.503V58.1733H180.327ZM183.674 58.1733V59.6382H175.185V58.1733H183.674Z" fill="white"/>
<defs>
<filter id="filter0_d_31_34" x="0.371658" y="0.826609" width="263.179" height="173.136" filterUnits="userSpaceOnUse" color-interpolation-filters="sRGB">
<feFlood flood-opacity="0" result="BackgroundImageFix"/>
<feColorMatrix in="SourceAlpha" type="matrix" values="0 0 0 0 0 0 0 0 0 0 0 0 0 0 0 0 0 0 127 0" result="hardAlpha"/>
<feOffset dy="23.4554"/>
<feGaussianBlur stdDeviation="29.3193"/>
<feComposite in2="hardAlpha" operator="out"/>
<feColorMatrix type="matrix" values="0 0 0 0 0 0 0 0 0 0 0 0 0 0 0 0 0 0 0.25 0"/>
<feBlend mode="normal" in2="BackgroundImageFix" result="effect1_dropShadow_31_34"/>
<feBlend mode="normal" in="SourceGraphic" in2="effect1_dropShadow_31_34" result="shape"/>
</filter>
<filter id="filter1_d_31_34" x="41.9011" y="24.2811" width="186.95" height="99.8528" filterUnits="userSpaceOnUse" color-interpolation-filters="sRGB">
<feFlood flood-opacity="0" result="BackgroundImageFix"/>
<feColorMatrix in="SourceAlpha" type="matrix" values="0 0 0 0 0 0 0 0 0 0 0 0 0 0 0 0 0 0 127 0" result="hardAlpha"/>
<feOffset dy="11.7277"/>
<feGaussianBlur stdDeviation="11.7277"/>
<feComposite in2="hardAlpha" operator="out"/>
<feColorMatrix type="matrix" values="0 0 0 0 0 0 0 0 0 0 0 0 0 0 0 0 0 0 0.25 0"/>
<feBlend mode="normal" in2="BackgroundImageFix" result="effect1_dropShadow_31_34"/>
<feBlend mode="normal" in="SourceGraphic" in2="effect1_dropShadow_31_34" result="shape"/>
</filter>
<filter id="filter2_b_31_34" x="18.4457" y="-10.9021" width="233.861" height="146.764" filterUnits="userSpaceOnUse" color-interpolation-filters="sRGB">
<feFlood flood-opacity="0" result="BackgroundImageFix"/>
<feGaussianBlur in="BackgroundImage" stdDeviation="23.4554"/>
<feComposite in2="SourceAlpha" operator="in" result="effect1_backgroundBlur_31_34"/>
<feBlend mode="normal" in="SourceGraphic" in2="effect1_backgroundBlur_31_34" result="shape"/>
</filter>
<linearGradient id="paint0_linear_31_34" x1="131.977" y1="21.4096" x2="131.966" y2="106.068" gradientUnits="userSpaceOnUse">
<stop stop-color="#302961"/>
<stop offset="0.134132" stop-color="#0CF4D1"/>
<stop offset="0.390084" stop-color="#493F95"/>
<stop offset="0.806751" stop-color="#221D45"/>
<stop offset="1" stop-color="#211C49"/>
</linearGradient>
<linearGradient id="paint1_linear_31_34" x1="12.8533" y1="51.2001" x2="190.939" y2="90.6392" gradientUnits="userSpaceOnUse">
<stop stop-color="#441F83"/>
<stop offset="1" stop-color="#4E63A9"/>
</linearGradient>
<linearGradient id="paint2_linear_31_34" x1="95.6015" y1="27.2446" x2="118.864" y2="90.1324" gradientUnits="userSpaceOnUse">
<stop stop-color="#09FBD3"/>
<stop offset="1" stop-color="#09FBD3" stop-opacity="0"/>
</linearGradient>
</defs>
</svg>
