<svg width="408" height="442" viewBox="0 0 408 442" fill="none" xmlns="http://www.w3.org/2000/svg">
<path d="M10.5557 0.538929C165.685 0.53889 407.789 0.538827 407.789 0.538827L407.789 53.8101L407.773 371.634C407.771 410.496 376.265 441.968 337.403 441.93L58.6549 441.651C26.2708 441.618 0.0190054 415.34 0.0189929 382.956L0.0188583 34.3961L10.5557 0.538929Z" fill="url(#paint0_linear_37_29)"/>
<path d="M11.0198 0L407.984 0.397157L407.967 367.323C407.965 399.708 381.711 425.935 349.325 425.903L69.6387 425.623C37.2535 425.591 11.0013 399.311 11.0028 366.926L11.0198 0Z" fill="url(#paint1_linear_37_29)"/>
<defs>
<linearGradient id="paint0_linear_37_29" x1="204.921" y1="-44.45" x2="195.398" y2="424.553" gradientUnits="userSpaceOnUse">
<stop stop-color="#391970"/>
<stop offset="0.172558" stop-color="#431591"/>
<stop offset="0.345241" stop-color="#341666"/>
<stop offset="0.681721" stop-color="#2F145C"/>
<stop offset="0.845354" stop-color="#472184"/>
<stop offset="1" stop-color="#2B1253"/>
</linearGradient>
<linearGradient id="paint1_linear_37_29" x1="19.1558" y1="146.591" x2="408.017" y2="145.733" gradientUnits="userSpaceOnUse">
<stop stop-color="#431C81"/>
<stop offset="0.520189" stop-color="#4E69AD"/>
<stop offset="1" stop-color="#9B4AAB"/>
</linearGradient>
</defs>
</svg>
