<svg width="126" height="20" viewBox="0 0 126 20" fill="none" xmlns="http://www.w3.org/2000/svg">
<line x1="8.74878" y1="12.4443" x2="113.737" y2="12.4443" stroke="#676767" stroke-dasharray="4 4"/>
<path d="M15.3449 11.3417C15.3449 15.6896 11.9567 19.1976 7.79743 19.1976C3.63815 19.1976 0.25 15.6896 0.25 11.3417C0.25 6.9938 3.63815 3.48584 7.79743 3.48584C11.9567 3.48584 15.3449 6.9938 15.3449 11.3417Z" stroke="#B64F33" stroke-width="0.5"/>
<ellipse cx="7.7976" cy="11.3415" rx="4.67846" ry="4.86352" fill="#B64F33"/>
<path d="M114.57 1.7417C111.555 1.7417 109.112 4.00161 109.112 6.80089C109.112 11.6411 114.57 17.9534 114.57 17.9534C114.57 17.9534 120.028 11.6401 120.028 6.80089C120.028 4.00262 117.585 1.7417 114.57 1.7417ZM114.57 9.60018C113.788 9.60018 113.038 9.31177 112.486 8.7984C111.933 8.28503 111.622 7.58876 111.622 6.86274C111.622 6.13673 111.933 5.44045 112.486 4.92708C113.038 4.41371 113.788 4.1253 114.57 4.1253C115.351 4.1253 116.101 4.41371 116.654 4.92708C117.207 5.44045 117.517 6.13673 117.517 6.86274C117.517 7.58876 117.207 8.28503 116.654 8.7984C116.101 9.31177 115.351 9.60018 114.57 9.60018Z" fill="#B64F33"/>
</svg>
